<?xml version="1.0" encoding="UTF-8" standalone="no"?>
<!-- Created with Inkscape (http://www.inkscape.org/) -->

<svg
   inkscape:version="1.1 (c68e22c387, 2021-05-23)"
   sodipodi:docname="BasinShoeBox_MWL.svg"
   id="svg5"
   version="1.1"
   viewBox="0 0 121.86588 63.456036"
   height="239.83383"
   width="460.59549"
   xmlns:inkscape="http://www.inkscape.org/namespaces/inkscape"
   xmlns:sodipodi="http://sodipodi.sourceforge.net/DTD/sodipodi-0.dtd"
   xmlns="http://www.w3.org/2000/svg"
   xmlns:svg="http://www.w3.org/2000/svg">
  <sodipodi:namedview
     id="namedview7"
     pagecolor="#ffffff"
     bordercolor="#000000"
     borderopacity="1"
     inkscape:pageshadow="0"
     inkscape:pageopacity="0"
     inkscape:pagecheckerboard="0"
     inkscape:document-units="mm"
     showgrid="false"
     inkscape:zoom="2.0000001"
     inkscape:cx="110.75"
     inkscape:cy="226.99999"
     inkscape:window-width="1280"
     inkscape:window-height="658"
     inkscape:window-x="-6"
     inkscape:window-y="-6"
     inkscape:window-maximized="1"
     inkscape:current-layer="layer1"
     units="px"
     lock-margins="true"
     fit-margin-top="2"
     fit-margin-left="2"
     fit-margin-right="2"
     fit-margin-bottom="2"
     showguides="true"
     inkscape:guide-bbox="true" />
  <defs
     id="defs2" />
  <g
     inkscape:label="Layer 1"
     inkscape:groupmode="layer"
     id="layer1"
     transform="translate(-72.093245,-127.21669)">
    <path
       id="path20"
       d="m 112.91026,154.19308 v 17.17964"
       style="fill:none;stroke:#000000;stroke-width:0.265;stroke-linecap:round;stroke-linejoin:round;stroke-miterlimit:4;stroke-dasharray:1.06, 0.53;stroke-dashoffset:0;stroke-opacity:1"
       sodipodi:nodetypes="cc" />
    <path
       sodipodi:nodetypes="cccc"
       id="path12"
       d="m 81.160258,154.21375 31.750002,-18.52083 h 71.52483 l -31.83733,18.52083"
       style="fill:#d5f6ff;stroke:#000000;stroke-width:0.5;stroke-linecap:round;stroke-linejoin:round;stroke-miterlimit:4;stroke-dasharray:none;stroke-opacity:1" />
    <path
       sodipodi:nodetypes="ccccc"
       id="path16"
       d="m 184.43509,135.69292 v 35.6798 l -6.04684,3.47637 m -8.15451,4.7568 -17.63598,10.28767"
       style="fill:none;stroke:#000000;stroke-width:0.5;stroke-linecap:round;stroke-linejoin:round;stroke-miterlimit:4;stroke-dasharray:none;stroke-opacity:1" />
    <path
       id="path18"
       d="M 184.34775,171.37272 H 112.91026 L 81.160257,189.89356"
       style="fill:none;stroke:#000000;stroke-width:0.265;stroke-linecap:round;stroke-linejoin:round;stroke-miterlimit:4;stroke-dasharray:1.06, 0.53;stroke-dashoffset:0;stroke-opacity:1" />
    <path
       sodipodi:nodetypes="ccccc"
       id="path10"
       d="m 81.160258,154.21375 v 35.67981 h 71.437502 v -35.67981 z"
       style="fill:none;stroke:#000000;stroke-width:0.5;stroke-linecap:round;stroke-linejoin:round;stroke-miterlimit:4;stroke-dasharray:none;stroke-opacity:1" />
    <path
       id="path967"
       d="m 136.35265,144.93434 8.92746,-12.56244"
       style="fill:none;stroke:#000000;stroke-width:0.2;stroke-linecap:round;stroke-linejoin:miter;stroke-miterlimit:4;stroke-dasharray:0.6, 0.6;stroke-dashoffset:0;stroke-opacity:1" />
    <ellipse
       style="fill:none;stroke:#000000;stroke-width:0.5;stroke-linecap:round;stroke-miterlimit:4;stroke-dasharray:none"
       id="path253-5"
       cx="178.00798"
       cy="177.18921"
       rx="1.2224525"
       ry="2.444905" />
    <path
       style="fill:none;stroke:#000000;stroke-width:0.5;stroke-linecap:butt;stroke-miterlimit:4;stroke-dasharray:none"
       id="path253-5-5"
       sodipodi:type="arc"
       sodipodi:cx="170.28334"
       sodipodi:cy="177.18922"
       sodipodi:rx="1.2224525"
       sodipodi:ry="2.444905"
       sodipodi:start="1.5707963"
       sodipodi:end="4.712389"
       sodipodi:open="true"
       sodipodi:arc-type="arc"
       d="m 170.28334,179.63413 a 1.2224525,2.444905 0 0 1 -1.05867,-1.22245 1.2224525,2.444905 0 0 1 0,-2.44491 1.2224525,2.444905 0 0 1 1.05867,-1.22245" />
    <path
       style="fill:none;stroke:#000000;stroke-width:0.5;stroke-linecap:butt;stroke-linejoin:miter;stroke-miterlimit:4;stroke-dasharray:none;stroke-opacity:1"
       d="m 170.28334,174.74423 h 7.77964"
       id="path1245" />
    <path
       style="fill:none;stroke:#000000;stroke-width:0.5;stroke-linecap:butt;stroke-linejoin:miter;stroke-miterlimit:4;stroke-dasharray:none;stroke-opacity:1"
       d="m 170.28334,179.63421 h 7.77964"
       id="path1245-37" />
    <g
       id="g3739"
       transform="translate(44.118591,31.143556)">
      <path
         sodipodi:nodetypes="cc"
         id="path845"
         d="M 133.94439,146.04567 H 145.1687"
         style="fill:none;stroke:#ff0000;stroke-width:0.75;stroke-linecap:butt;stroke-linejoin:miter;stroke-opacity:1" />
      <path
         id="path847"
         d="m 144.01971,144.72275 v 2.64583 l 5.29167,-1.32291 z"
         style="fill:#ff0000;stroke:none;stroke-width:0.264583px;stroke-linecap:butt;stroke-linejoin:miter;stroke-opacity:1" />
    </g>
    <g
       id="g238"
       transform="matrix(0.6,0,0,0.6,54.767354,58.051472)">
      <g
         style="fill:#000000;fill-opacity:1"
         id="g171"
         transform="translate(16.606042,101.47042)">
        <path
           style="stroke:none"
           d="M 4.359375,-0.0625 C 5.90625,-0.640625 7.375,-2.421875 7.375,-4.34375 c 0,-1.609375 -1.0625,-2.6875 -2.546875,-2.6875 -2.140625,0 -4.34375,2.265625 -4.34375,4.59375 0,1.65625 1.125,2.65625 2.5625,2.65625 0.25,0 0.578125,-0.046875 0.96875,-0.15625 -0.03125,0.625 -0.03125,0.640625 -0.03125,0.78125 0,0.3125 0,1.09375 0.828125,1.09375 1.171875,0 1.65625,-1.828125 1.65625,-1.9375 0,-0.0625 -0.0625,-0.09375 -0.109375,-0.09375 -0.078125,0 -0.09375,0.046875 -0.125,0.109375 C 6,0.71875 5.421875,0.96875 5.078125,0.96875 c -0.46875,0 -0.609375,-0.265625 -0.71875,-1.03125 z m -1.875,-0.078125 c -0.78125,-0.3125 -1.125,-1.078125 -1.125,-1.984375 0,-0.6875 0.265625,-2.109375 1.015625,-3.171875 C 3.109375,-6.3125 4.046875,-6.78125 4.78125,-6.78125 5.765625,-6.78125 6.5,-6 6.5,-4.671875 c 0,1 -0.515625,3.34375 -2.1875,4.265625 -0.046875,-0.34375 -0.140625,-1.0625 -0.875,-1.0625 -0.53125,0 -1.015625,0.484375 -1.015625,1.015625 0,0.1875 0.0625,0.296875 0.0625,0.3125 z M 3.09375,-0.03125 c -0.140625,0 -0.453125,0 -0.453125,-0.421875 0,-0.40625 0.375,-0.796875 0.796875,-0.796875 0.421875,0 0.609375,0.234375 0.609375,0.84375 0,0.140625 -0.015625,0.15625 -0.109375,0.203125 C 3.671875,-0.09375 3.375,-0.03125 3.09375,-0.03125 Z m 0,0"
           transform="translate(188.57749,110.99)"
           id="path169" />
      </g>
      <g
         style="fill:#000000;fill-opacity:1"
         id="g175"
         transform="translate(16.606042,101.47042)">
        <path
           style="stroke:none"
           d="M 6.734375,-2.265625 C 6.84375,-2.328125 6.921875,-2.375 6.921875,-2.5 c 0,-0.109375 -0.078125,-0.15625 -0.1875,-0.21875 L 1.203125,-5.3125 C 1.078125,-5.390625 1.0625,-5.390625 1.03125,-5.390625 c -0.109375,0 -0.203125,0.09375 -0.203125,0.203125 0,0.09375 0.046875,0.15625 0.1875,0.21875 L 6.25,-2.5 1.015625,-0.015625 c -0.140625,0.0625 -0.1875,0.125 -0.1875,0.21875 0,0.109375 0.09375,0.203125 0.203125,0.203125 0.03125,0 0.046875,0 0.171875,-0.078125 z m 0,0"
           transform="translate(199.21754,110.99)"
           id="path173" />
      </g>
      <g
         style="fill:#000000;fill-opacity:1"
         id="g179"
         transform="translate(16.606042,101.47042)">
        <path
           style="stroke:none"
           d="m 4.578125,-3.1875 c 0,-0.796875 -0.046875,-1.59375 -0.390625,-2.328125 -0.453125,-0.96875 -1.28125,-1.125 -1.6875,-1.125 -0.609375,0 -1.328125,0.265625 -1.75,1.1875 -0.3125,0.6875 -0.359375,1.46875 -0.359375,2.265625 0,0.75 0.03125,1.640625 0.453125,2.40625 0.421875,0.796875 1.15625,1 1.640625,1 0.53125,0 1.296875,-0.203125 1.734375,-1.15625 0.3125,-0.6875 0.359375,-1.46875 0.359375,-2.25 z M 2.484375,0 C 2.09375,0 1.5,-0.25 1.328125,-1.203125 1.21875,-1.796875 1.21875,-2.71875 1.21875,-3.3125 c 0,-0.640625 0,-1.296875 0.078125,-1.828125 0.1875,-1.1875 0.9375,-1.28125 1.1875,-1.28125 0.328125,0 0.984375,0.1875 1.171875,1.171875 0.109375,0.5625 0.109375,1.3125 0.109375,1.9375 0,0.75 0,1.421875 -0.109375,2.0625 C 3.5,-0.296875 2.9375,0 2.484375,0 Z m 0,0"
           transform="translate(209.745,110.99)"
           id="path177" />
      </g>
    </g>
    <path
       id="path18-3"
       d="m 81.365105,172.98397 h 3.00646 m 12.762328,0 h 55.668697 l 31.75,-18.52084"
       style="fill:none;stroke:#000080;stroke-width:0.75;stroke-linecap:butt;stroke-linejoin:round;stroke-miterlimit:4;stroke-dasharray:none;stroke-dashoffset:0;stroke-opacity:1"
       sodipodi:nodetypes="ccccc" />
    <path
       id="path969-6"
       d="M 79.572757,172.98396 H 75.14223"
       style="fill:none;stroke:#000000;stroke-width:0.325;stroke-linecap:butt;stroke-linejoin:miter;stroke-miterlimit:4;stroke-dasharray:none;stroke-opacity:1" />
    <path
       style="fill:none;stroke:#000000;stroke-width:0.325;stroke-linecap:butt;stroke-linejoin:miter;stroke-miterlimit:4;stroke-dasharray:none;stroke-opacity:1"
       d="m 77.357493,161.5873 v 14.42982"
       id="path986"
       sodipodi:nodetypes="cc" />
    <path
       style="fill:#000000;stroke:none;stroke-width:1.82221px;stroke-linecap:butt;stroke-linejoin:miter;stroke-opacity:1"
       d="m 77.357497,158.77391 1.28387,4.43068 c 0,0 -0.720987,-0.33716 -1.283875,-0.33716 -0.562886,0 -1.283872,0.33716 -1.283872,0.33716 z"
       id="path988-4"
       sodipodi:nodetypes="cczcc" />
    <g
       style="fill:#000000;fill-opacity:1"
       id="g116"
       transform="matrix(0.56058685,0,0,0.56058685,-27.726489,99.024461)">
      <path
         style="stroke:none"
         d="m 1.328125,-0.828125 c 0.53125,-0.578125 0.828125,-0.828125 1.1875,-1.140625 0,0 0.609375,-0.53125 0.96875,-0.890625 C 4.4375,-3.78125 4.65625,-4.265625 4.65625,-4.3125 c 0,-0.09375 -0.09375,-0.09375 -0.109375,-0.09375 -0.078125,0 -0.09375,0.015625 -0.15625,0.109375 -0.296875,0.484375 -0.5,0.640625 -0.734375,0.640625 -0.25,0 -0.359375,-0.15625 -0.515625,-0.328125 -0.1875,-0.21875 -0.359375,-0.421875 -0.6875,-0.421875 -0.75,0 -1.203125,0.921875 -1.203125,1.140625 0,0.046875 0.03125,0.109375 0.109375,0.109375 0.09375,0 0.109375,-0.046875 0.140625,-0.109375 0.1875,-0.46875 0.765625,-0.46875 0.84375,-0.46875 0.203125,0 0.390625,0.0625 0.625,0.140625 0.40625,0.15625 0.515625,0.15625 0.765625,0.15625 -0.359375,0.421875 -1.1875,1.140625 -1.375,1.296875 l -0.90625,0.84375 C 0.78125,-0.625 0.421875,-0.0625 0.421875,0.015625 c 0,0.09375 0.109375,0.09375 0.125,0.09375 0.078125,0 0.09375,-0.015625 0.15625,-0.125 0.234375,-0.359375 0.53125,-0.625 0.859375,-0.625 0.21875,0 0.328125,0.09375 0.578125,0.375 0.15625,0.21875 0.34375,0.375 0.625,0.375 1,0 1.578125,-1.265625 1.578125,-1.53125 0,-0.046875 -0.046875,-0.109375 -0.125,-0.109375 -0.09375,0 -0.109375,0.0625 -0.140625,0.140625 C 3.84375,-0.75 3.203125,-0.5625 2.875,-0.5625 c -0.1875,0 -0.375,-0.0625 -0.578125,-0.125 -0.34375,-0.125 -0.5,-0.171875 -0.703125,-0.171875 -0.015625,0 -0.171875,0 -0.265625,0.03125 z m 0,0"
         transform="translate(178.585,110.99)"
         id="path114" />
    </g>
    <g
       style="fill:#000080;fill-opacity:1"
       id="g1949"
       transform="matrix(0.42666667,0,0,0.42666667,9.10821,127.0349)">
      <path
         style="fill:#000080;stroke:none"
         d="m 8.765625,0 v -0.3125 h -0.25 c -0.765625,0 -0.78125,-0.109375 -0.78125,-0.46875 v -5.25 C 7.734375,-6.390625 7.75,-6.5 8.515625,-6.5 h 0.25 v -0.3125 h -1.6875 C 6.8125,-6.8125 6.8125,-6.796875 6.75,-6.625 L 4.5625,-1 2.40625,-6.59375 C 2.3125,-6.8125 2.28125,-6.8125 2.046875,-6.8125 H 0.375 V -6.5 h 0.234375 c 0.765625,0 0.78125,0.109375 0.78125,0.46875 v 4.984375 c 0,0.265625 0,0.734375 -1.015625,0.734375 V 0 L 1.53125,-0.03125 2.703125,0 v -0.3125 c -1.03125,0 -1.03125,-0.46875 -1.03125,-0.734375 v -5.375 H 1.6875 L 4.09375,-0.21875 C 4.140625,-0.09375 4.1875,0 4.28125,0 4.390625,0 4.421875,-0.078125 4.46875,-0.1875 L 6.921875,-6.5 v 5.71875 c 0,0.359375 -0.015625,0.46875 -0.78125,0.46875 H 5.90625 V 0 c 0.359375,-0.03125 1.046875,-0.03125 1.4375,-0.03125 0.375,0 1.046875,0 1.421875,0.03125 z m 0,0"
         transform="translate(178.585,110.99)"
         id="path1943" />
      <path
         style="fill:#000080;stroke:none"
         d="M 10.0625,-6.5 V -6.8125 C 9.765625,-6.78125 9.453125,-6.78125 9.15625,-6.78125 L 7.96875,-6.8125 V -6.5 c 0.671875,0.015625 0.859375,0.34375 0.859375,0.53125 0,0.0625 -0.03125,0.140625 -0.046875,0.203125 l -1.5,4.59375 -1.59375,-4.875 C 5.6875,-6.09375 5.65625,-6.15625 5.65625,-6.203125 5.65625,-6.5 6.234375,-6.5 6.5,-6.5 V -6.8125 C 6.140625,-6.78125 5.46875,-6.78125 5.078125,-6.78125 L 3.875,-6.8125 V -6.5 c 0.5625,0 0.765625,0 0.890625,0.359375 L 4.984375,-5.4375 3.59375,-1.171875 2,-6.078125 C 1.984375,-6.09375 1.96875,-6.171875 1.96875,-6.203125 1.96875,-6.5 2.546875,-6.5 2.8125,-6.5 V -6.8125 C 2.453125,-6.78125 1.78125,-6.78125 1.390625,-6.78125 L 0.171875,-6.8125 V -6.5 c 0.75,0 0.796875,0.046875 0.921875,0.421875 L 3.078125,0.03125 c 0.03125,0.09375 0.0625,0.1875 0.1875,0.1875 0.140625,0 0.15625,-0.0625 0.203125,-0.203125 l 1.640625,-5.0625 1.65625,5.078125 c 0.03125,0.09375 0.0625,0.1875 0.1875,0.1875 0.140625,0 0.171875,-0.0625 0.203125,-0.203125 L 9.0625,-5.828125 C 9.234375,-6.40625 9.671875,-6.5 10.0625,-6.5 Z m 0,0"
         transform="translate(187.7207,110.99)"
         id="path1945" />
      <path
         style="fill:#000080;stroke:none"
         d="m 5.796875,-2.578125 h -0.25 c -0.109375,1.015625 -0.25,2.265625 -2,2.265625 h -0.8125 C 2.265625,-0.3125 2.25,-0.375 2.25,-0.703125 v -5.3125 C 2.25,-6.359375 2.25,-6.5 3.1875,-6.5 H 3.515625 V -6.8125 C 3.15625,-6.78125 2.25,-6.78125 1.84375,-6.78125 c -0.390625,0 -1.171875,0 -1.515625,-0.03125 V -6.5 H 0.5625 c 0.765625,0 0.796875,0.109375 0.796875,0.46875 v 5.25 c 0,0.359375 -0.03125,0.46875 -0.796875,0.46875 H 0.328125 V 0 h 5.1875 z m 0,0"
         transform="translate(197.96226,110.99)"
         id="path1947" />
    </g>
    <g
       style="fill:#000000;fill-opacity:1"
       id="g961"
       transform="matrix(0.6,0,0,0.6,37.242652,65.436233)">
      <path
         style="stroke:none"
         d="M 1.78125,-1.140625 C 1.390625,-0.484375 1,-0.34375 0.5625,-0.3125 0.4375,-0.296875 0.34375,-0.296875 0.34375,-0.109375 0.34375,-0.046875 0.40625,0 0.484375,0 0.75,0 1.0625,-0.03125 1.328125,-0.03125 c 0.34375,0 0.6875,0.03125 1,0.03125 0.0625,0 0.1875,0 0.1875,-0.1875 0,-0.109375 -0.078125,-0.125 -0.15625,-0.125 -0.21875,-0.015625 -0.46875,-0.09375 -0.46875,-0.34375 0,-0.125 0.0625,-0.234375 0.140625,-0.375 l 0.765625,-1.265625 h 2.5 c 0.015625,0.203125 0.15625,1.5625 0.15625,1.65625 0,0.296875 -0.515625,0.328125 -0.71875,0.328125 C 4.59375,-0.3125 4.5,-0.3125 4.5,-0.109375 4.5,0 4.609375,0 4.640625,0 5.046875,0 5.46875,-0.03125 5.875,-0.03125 6.125,-0.03125 6.765625,0 7.015625,0 7.0625,0 7.1875,0 7.1875,-0.203125 7.1875,-0.3125 7.09375,-0.3125 6.953125,-0.3125 6.34375,-0.3125 6.34375,-0.375 6.3125,-0.671875 l -0.609375,-6.21875 c -0.015625,-0.203125 -0.015625,-0.25 -0.1875,-0.25 -0.15625,0 -0.203125,0.078125 -0.265625,0.171875 z M 2.984375,-2.609375 4.9375,-5.90625 5.265625,-2.609375 Z m 0,0"
         transform="translate(178.585,110.99)"
         id="path959" />
    </g>
    <g
       style="fill:#000000;fill-opacity:1"
       id="g974"
       transform="matrix(0.6,0,0,0.6,37.242652,65.436233)">
      <path
         style="stroke:none"
         d="m 4.0625,-1.5 c 0,-0.859375 -0.703125,-1.578125 -1.625,-1.578125 -0.421875,0 -0.796875,0.171875 -1.046875,0.421875 v -2.1875 L 0.34375,-4.765625 v 0.25 c 0.46875,0 0.515625,0.0625 0.515625,0.40625 V 0 H 1.09375 l 0.25,-0.421875 C 1.609375,-0.078125 2,0.0625 2.359375,0.0625 3.28125,0.0625 4.0625,-0.625 4.0625,-1.5 Z m -0.625,-0.015625 c 0,0.15625 0,0.6875 -0.28125,1.015625 -0.28125,0.3125 -0.625,0.375 -0.828125,0.375 -0.5625,0 -0.84375,-0.4375 -0.90625,-0.578125 v -1.625 C 1.609375,-2.65625 1.984375,-2.875 2.40625,-2.875 c 0.390625,0 0.671875,0.21875 0.8125,0.421875 0.140625,0.203125 0.21875,0.484375 0.21875,0.9375 z m 0,0"
         transform="translate(186.056,112.485)"
         id="path963" />
      <path
         style="stroke:none"
         d="m 3.796875,-0.625 v -0.390625 h -0.25 v 0.375 c 0,0.078125 0,0.40625 -0.25,0.40625 -0.265625,0 -0.265625,-0.328125 -0.265625,-0.40625 V -1.875 c 0,-0.359375 0,-0.625 -0.3125,-0.890625 C 2.4375,-3 2.09375,-3.109375 1.6875,-3.109375 c -0.65625,0 -1.125,0.25 -1.125,0.671875 0,0.234375 0.140625,0.34375 0.328125,0.34375 0.1875,0 0.328125,-0.140625 0.328125,-0.328125 0,-0.109375 -0.0625,-0.265625 -0.25,-0.3125 0.25,-0.171875 0.65625,-0.171875 0.703125,-0.171875 0.390625,0 0.8125,0.25 0.8125,0.84375 v 0.203125 c -0.375,0.015625 -0.84375,0.046875 -1.34375,0.234375 -0.625,0.21875 -0.828125,0.609375 -0.828125,0.921875 0,0.59375 0.71875,0.765625 1.21875,0.765625 0.5625,0 0.890625,-0.3125 1.03125,-0.578125 0.03125,0.28125 0.21875,0.546875 0.53125,0.546875 0,0 0.703125,0 0.703125,-0.65625 z m -1.3125,-0.359375 c 0,0.671875 -0.578125,0.859375 -0.890625,0.859375 -0.359375,0 -0.6875,-0.234375 -0.6875,-0.578125 0,-0.390625 0.328125,-0.921875 1.578125,-0.96875 z m 0,0"
         transform="translate(190.45647,112.485)"
         id="path965" />
      <path
         style="stroke:none"
         d="m 2.84375,-0.90625 c 0,-0.265625 -0.125,-0.484375 -0.3125,-0.640625 -0.265625,-0.25 -0.578125,-0.3125 -0.828125,-0.34375 -0.546875,-0.109375 -1,-0.1875 -1,-0.5625 0,-0.21875 0.1875,-0.484375 0.84375,-0.484375 0.8125,0 0.84375,0.5625 0.859375,0.765625 0,0.078125 0.09375,0.078125 0.109375,0.078125 0.125,0 0.125,-0.046875 0.125,-0.1875 v -0.640625 c 0,-0.125 0,-0.1875 -0.09375,-0.1875 -0.03125,0 -0.046875,0 -0.140625,0.078125 -0.015625,0.015625 -0.078125,0.078125 -0.125,0.109375 -0.21875,-0.140625 -0.46875,-0.1875 -0.734375,-0.1875 -1,0 -1.234375,0.53125 -1.234375,0.875 0,0.21875 0.09375,0.40625 0.265625,0.546875 0.265625,0.21875 0.53125,0.265625 0.96875,0.34375 0.34375,0.0625 0.90625,0.15625 0.90625,0.625 0,0.265625 -0.1875,0.59375 -0.859375,0.59375 -0.671875,0 -0.90625,-0.4375 -1.03125,-0.90625 -0.03125,-0.09375 -0.03125,-0.125 -0.125,-0.125 -0.125,0 -0.125,0.046875 -0.125,0.1875 v 0.859375 C 0.3125,0 0.3125,0.0625 0.40625,0.0625 0.46875,0.0625 0.609375,-0.078125 0.75,-0.234375 1.046875,0.0625 1.421875,0.0625 1.59375,0.0625 c 0.90625,0 1.25,-0.484375 1.25,-0.96875 z m 0,0"
         transform="translate(194.42456,112.485)"
         id="path968" />
      <path
         style="stroke:none"
         d="M 1.90625,0 V -0.25 C 1.5,-0.25 1.4375,-0.25 1.4375,-0.546875 v -2.53125 L 0.40625,-3 v 0.25 c 0.4375,0 0.5,0.046875 0.5,0.390625 v 1.8125 C 0.90625,-0.25 0.84375,-0.25 0.390625,-0.25 V 0 c 0,0 0.5,-0.03125 0.78125,-0.03125 0.25,0 0.5,0.015625 0.734375,0.03125 z m -0.375,-4.1875 c 0,-0.234375 -0.171875,-0.40625 -0.40625,-0.40625 -0.234375,0 -0.390625,0.1875 -0.390625,0.390625 0,0.21875 0.171875,0.40625 0.390625,0.40625 0.234375,0 0.40625,-0.203125 0.40625,-0.390625 z m 0,0"
         transform="translate(197.58369,112.485)"
         id="path970" />
      <path
         style="stroke:none"
         d="m 4.109375,0 v -0.25 c -0.453125,0 -0.515625,0 -0.515625,-0.296875 v -1.5625 c 0,-0.609375 -0.296875,-0.96875 -1.046875,-0.96875 -0.578125,0 -0.9375,0.3125 -1.140625,0.6875 v -0.6875 L 0.375,-3 v 0.25 c 0.46875,0 0.53125,0.046875 0.53125,0.390625 v 1.8125 C 0.90625,-0.25 0.828125,-0.25 0.375,-0.25 V 0 c 0,0 0.5,-0.03125 0.796875,-0.03125 C 1.421875,-0.03125 1.90625,0 1.96875,0 v -0.25 c -0.453125,0 -0.515625,0 -0.515625,-0.296875 V -1.8125 c 0,-0.71875 0.578125,-1.0625 1.03125,-1.0625 0.484375,0 0.546875,0.375 0.546875,0.734375 v 1.59375 C 3.03125,-0.25 2.96875,-0.25 2.515625,-0.25 V 0 c 0,0 0.5,-0.03125 0.796875,-0.03125 C 3.5625,-0.03125 4.046875,0 4.109375,0 Z m 0,0"
         transform="translate(199.83623,112.485)"
         id="path972" />
    </g>
  </g>
</svg>
