<?xml version="1.0" encoding="UTF-8" standalone="no"?>
<!DOCTYPE svg PUBLIC "-//W3C//DTD SVG 1.1//EN"
 "http://www.w3.org/Graphics/SVG/1.1/DTD/svg11.dtd">
<!-- Generated by graphviz version 2.40.1 (20161225.0304)
 -->
<!-- Title: G Pages: 1 -->
<svg width="650pt" height="87pt"
 viewBox="0.00 0.00 650.00 86.62" xmlns="http://www.w3.org/2000/svg" xmlns:xlink="http://www.w3.org/1999/xlink">
<g id="graph0" class="graph" transform="scale(1 1) rotate(0) translate(4 82.6216)">
<title>G</title>
<polygon fill="#ffffff" stroke="transparent" points="-4,4 -4,-82.6216 646,-82.6216 646,4 -4,4"/>
<!-- S0 -->
<g id="node1" class="node">
<title>S0</title>
<ellipse fill="none" stroke="#000000" cx="29" cy="-49.6216" rx="29" ry="29"/>
<text text-anchor="middle" x="29" y="-53.0216" font-family="arial" font-size="12.00" fill="#000000">(S0)</text>
<text text-anchor="middle" x="29" y="-40.0216" font-family="arial" font-size="12.00" fill="#000000">Hold</text>
</g>
<!-- S1 -->
<g id="node2" class="node">
<title>S1</title>
<ellipse fill="none" stroke="#000000" cx="176" cy="-49.6216" rx="29" ry="29"/>
<text text-anchor="middle" x="176" y="-53.0216" font-family="arial" font-size="12.00" fill="#000000">(S1)</text>
<text text-anchor="middle" x="176" y="-40.0216" font-family="arial" font-size="12.00" fill="#000000">Generate</text>
</g>
<!-- S0&#45;&gt;S1 -->
<g id="edge1" class="edge">
<title>S0&#45;&gt;S1</title>
<path fill="none" stroke="#c0c0c0" d="M58.0425,-49.6216C80.519,-49.6216 111.8802,-49.6216 136.6163,-49.6216"/>
<polygon fill="#c0c0c0" stroke="#c0c0c0" points="136.7667,-53.1217 146.7667,-49.6216 136.7666,-46.1217 136.7667,-53.1217"/>
<text text-anchor="middle" x="102.5" y="-52.8216" font-family="arial" font-size="11.00" fill="#000000">h &gt; h_start</text>
</g>
<!-- S2 -->
<g id="node3" class="node">
<title>S2</title>
<ellipse fill="none" stroke="#000000" cx="347" cy="-49.6216" rx="29" ry="29"/>
<text text-anchor="middle" x="347" y="-53.0216" font-family="arial" font-size="12.00" fill="#000000">(S2)</text>
<text text-anchor="middle" x="347" y="-40.0216" font-family="arial" font-size="12.00" fill="#000000">Hold</text>
</g>
<!-- S1&#45;&gt;S2 -->
<g id="edge2" class="edge">
<title>S1&#45;&gt;S2</title>
<path fill="none" stroke="#c0c0c0" d="M205.0078,-49.6216C233.259,-49.6216 276.4046,-49.6216 307.7214,-49.6216"/>
<polygon fill="#c0c0c0" stroke="#c0c0c0" points="307.8499,-53.1217 317.8499,-49.6216 307.8498,-46.1217 307.8499,-53.1217"/>
<text text-anchor="middle" x="261.5" y="-52.8216" font-family="arial" font-size="11.00" fill="#000000">n11 &gt; n11_max</text>
</g>
<!-- S3 -->
<g id="node4" class="node">
<title>S3</title>
<ellipse fill="none" stroke="#000000" cx="494" cy="-49.6216" rx="29" ry="29"/>
<text text-anchor="middle" x="494" y="-53.0216" font-family="arial" font-size="12.00" fill="#000000">(S3)</text>
<text text-anchor="middle" x="494" y="-40.0216" font-family="arial" font-size="12.00" fill="#000000">Fill</text>
</g>
<!-- S2&#45;&gt;S3 -->
<g id="edge3" class="edge">
<title>S2&#45;&gt;S3</title>
<path fill="none" stroke="#c0c0c0" d="M376.0425,-49.6216C398.519,-49.6216 429.8802,-49.6216 454.6163,-49.6216"/>
<polygon fill="#c0c0c0" stroke="#c0c0c0" points="454.7667,-53.1217 464.7667,-49.6216 454.7666,-46.1217 454.7667,-53.1217"/>
<text text-anchor="middle" x="420.5" y="-52.8216" font-family="arial" font-size="11.00" fill="#000000">h &lt; 0</text>
</g>
<!-- S4 -->
<g id="node5" class="node">
<title>S4</title>
<ellipse fill="none" stroke="#000000" cx="613" cy="-49.6216" rx="29" ry="29"/>
<text text-anchor="middle" x="613" y="-53.0216" font-family="arial" font-size="12.00" fill="#000000">(S4)</text>
<text text-anchor="middle" x="613" y="-40.0216" font-family="arial" font-size="12.00" fill="#000000">Hold</text>
</g>
<!-- S3&#45;&gt;S4 -->
<g id="edge4" class="edge">
<title>S3&#45;&gt;S4</title>
<path fill="none" stroke="#c0c0c0" d="M523.1107,-49.6216C538.2377,-49.6216 556.947,-49.6216 573.3733,-49.6216"/>
<polygon fill="#c0c0c0" stroke="#c0c0c0" points="573.7775,-53.1217 583.7774,-49.6216 573.7774,-46.1217 573.7775,-53.1217"/>
<text text-anchor="middle" x="553.5" y="-52.8216" font-family="arial" font-size="11.00" fill="#000000">h &gt; 0</text>
</g>
<!-- S4&#45;&gt;S1 -->
<g id="edge5" class="edge">
<title>S4&#45;&gt;S1</title>
<path fill="none" stroke="#c0c0c0" d="M587.5013,-35.6111C569.948,-26.7911 545.774,-16.2323 523,-11.6216 433.7007,6.4578 408.3335,.2563 318,-11.6216 281.8313,-16.3774 241.7805,-27.67 213.4598,-36.7166"/>
<polygon fill="#c0c0c0" stroke="#c0c0c0" points="212.0106,-33.5076 203.5856,-39.9317 214.1779,-40.1637 212.0106,-33.5076"/>
<text text-anchor="middle" x="420.5" y="-4.8216" font-family="arial" font-size="11.00" fill="#000000">h &gt; h_start</text>
</g>
</g>
</svg>
