<?xml version="1.0" encoding="UTF-8" standalone="no"?>
<!DOCTYPE svg PUBLIC "-//W3C//DTD SVG 1.1//EN"
 "http://www.w3.org/Graphics/SVG/1.1/DTD/svg11.dtd">
<!-- Generated by graphviz version 2.40.1 (20161225.0304)
 -->
<!-- Title: G Pages: 1 -->
<svg width="720pt" height="321pt"
 viewBox="0.00 0.00 720.00 321.10" xmlns="http://www.w3.org/2000/svg" xmlns:xlink="http://www.w3.org/1999/xlink">
<g id="graph0" class="graph" transform="scale(.9425 .9425) rotate(0) translate(4 336.6789)">
<title>G</title>
<polygon fill="#ffffff" stroke="transparent" points="-4,4 -4,-336.6789 759.8963,-336.6789 759.8963,4 -4,4"/>
<!-- S0 -->
<g id="node1" class="node">
<title>S0</title>
<ellipse fill="none" stroke="#000000" cx="62.5391" cy="-286.3759" rx="46.1069" ry="46.1069"/>
<text text-anchor="middle" x="62.5391" y="-283.5759" font-family="monospace" font-size="11.00" fill="#000000">S0 (hold)</text>
</g>
<!-- S1 -->
<g id="node2" class="node">
<title>S1</title>
<ellipse fill="none" stroke="#000000" cx="62.5391" cy="-92.3759" rx="62.5783" ry="62.5783"/>
<text text-anchor="middle" x="62.5391" y="-89.5759" font-family="monospace" font-size="11.00" fill="#000000">S1 (generate)</text>
</g>
<!-- S0&#45;&gt;S1 -->
<g id="edge1" class="edge">
<title>S0&#45;&gt;S1</title>
<path fill="none" stroke="#c0c0c0" d="M62.5391,-239.8633C62.5391,-217.5389 62.5391,-190.2678 62.5391,-165.2757"/>
<polygon fill="#c0c0c0" stroke="#c0c0c0" points="66.0392,-165.0942 62.5391,-155.0942 59.0392,-165.0943 66.0392,-165.0942"/>
<text text-anchor="middle" x="53.5391" y="-194.694" font-family="monospace" font-size="11.00" fill="#000000">h &#45; h_start &gt; 0.0</text>
</g>
<!-- S2 -->
<g id="node3" class="node">
<title>S2</title>
<ellipse fill="none" stroke="#000000" cx="295.3813" cy="-92.3759" rx="46.1069" ry="46.1069"/>
<text text-anchor="middle" x="295.3813" y="-89.5759" font-family="monospace" font-size="11.00" fill="#000000">S2 (hold)</text>
</g>
<!-- S1&#45;&gt;S2 -->
<g id="edge2" class="edge">
<title>S1&#45;&gt;S2</title>
<path fill="none" stroke="#c0c0c0" d="M125.2428,-92.3759C160.5206,-92.3759 204.2266,-92.3759 238.507,-92.3759"/>
<polygon fill="#c0c0c0" stroke="#c0c0c0" points="238.8235,-95.876 248.8234,-92.3759 238.8234,-88.876 238.8235,-95.876"/>
<text text-anchor="middle" x="187.0783" y="-95.5759" font-family="monospace" font-size="11.00" fill="#000000">n11 &gt; n11_max</text>
</g>
<!-- S3 -->
<g id="node4" class="node">
<title>S3</title>
<ellipse fill="none" stroke="#000000" cx="538.9873" cy="-92.3759" rx="46.1069" ry="46.1069"/>
<text text-anchor="middle" x="538.9873" y="-89.5759" font-family="monospace" font-size="11.00" fill="#000000">S3 (fill)</text>
</g>
<!-- S2&#45;&gt;S3 -->
<g id="edge3" class="edge">
<title>S2&#45;&gt;S3</title>
<path fill="none" stroke="#c0c0c0" d="M341.7751,-92.3759C381.6925,-92.3759 439.4243,-92.3759 482.1168,-92.3759"/>
<polygon fill="#c0c0c0" stroke="#c0c0c0" points="482.352,-95.876 492.3519,-92.3759 482.3519,-88.876 482.352,-95.876"/>
<text text-anchor="middle" x="417.1843" y="-95.5759" font-family="monospace" font-size="11.00" fill="#000000">h &lt; 0</text>
</g>
<!-- S4 -->
<g id="node5" class="node">
<title>S4</title>
<ellipse fill="none" stroke="#000000" cx="705.5933" cy="-92.3759" rx="46.1224" ry="46.1224"/>
<ellipse fill="none" stroke="#000000" cx="705.5933" cy="-92.3759" rx="50.1068" ry="50.1068"/>
<text text-anchor="middle" x="705.5933" y="-89.5759" font-family="monospace" font-size="11.00" fill="#000000">S4 (hold)</text>
</g>
<!-- S3&#45;&gt;S4 -->
<g id="edge4" class="edge">
<title>S3&#45;&gt;S4</title>
<path fill="none" stroke="#c0c0c0" d="M585.3964,-92.3759C603.8445,-92.3759 625.3179,-92.3759 644.9687,-92.3759"/>
<polygon fill="#c0c0c0" stroke="#c0c0c0" points="645.0531,-95.876 655.0531,-92.3759 645.053,-88.876 645.0531,-95.876"/>
<text text-anchor="middle" x="620.2903" y="-95.5759" font-family="monospace" font-size="11.00" fill="#000000">h &gt; 0</text>
</g>
<!-- S4&#45;&gt;S1 -->
<g id="edge5" class="edge">
<title>S4&#45;&gt;S1</title>
<path fill="none" stroke="#c0c0c0" d="M665.0279,-62.4638C642.7157,-47.8744 613.8289,-31.8833 585.2903,-24.3759 440.7793,13.6394 396.2292,1.6086 249.0783,-24.3759 207.9666,-31.6356 164.0031,-47.2461 129.0878,-61.681"/>
<polygon fill="#c0c0c0" stroke="#c0c0c0" points="127.3535,-58.6132 119.4897,-65.7133 130.0648,-65.0668 127.3535,-58.6132"/>
<text text-anchor="middle" x="417.1843" y="-9.5759" font-family="monospace" font-size="11.00" fill="#000000">h &#45; h_start &gt; 0.0</text>
</g>
</g>
</svg>
